<svg xmlns="http://www.w3.org/2000/svg" viewBox="0 0 120 120">
  <defs>
    <linearGradient id="gold" x1="0" y1="0" x2="1" y2="1">
      <stop offset="0" stop-color="#fff8bf"/>
      <stop offset="0.45" stop-color="#f7d56f"/>
      <stop offset="1" stop-color="#dca73d"/>
    </linearGradient>
    <filter id="glow" x="-60%" y="-60%" width="220%" height="220%">
      <feGaussianBlur stdDeviation="2.2" result="b"/>
      <feMerge>
        <feMergeNode in="b"/>
        <feMergeNode in="SourceGraphic"/>
      </feMerge>
    </filter>
  </defs>
  <g filter="url(#glow)">
    <path d="M24 16h72v88H24z" fill="none"/>
    <path d="M33 14c9 0 18 3 24 10 6-7 15-10 24-10 10 0 17 6 17 15 0 8-4 14-11 18-9 5-16 7-22 13-4 4-5 10-5 17v22H49V79c0-9-1-14-5-18-6-7-13-9-22-13-7-4-11-10-11-18 0-9 8-16 22-16z" fill="url(#gold)" stroke="#fff7d2" stroke-width="4"/>
  </g>
</svg>
