<svg xmlns="http://www.w3.org/2000/svg" viewBox="0 0 750 330"><defs><linearGradient id="bgGradient" x1="0%" y1="0%" x2="100%" y2="100%"><stop offset="0%" stop-color="#1e88e5"/><stop offset="100%" stop-color="#64b5f6"/></linearGradient><linearGradient id="goldGradient" x1="0%" y1="0%" x2="100%" y2="100%"><stop offset="0%" stop-color="#ffd700"/><stop offset="100%" stop-color="#ffed4e"/></linearGradient></defs><rect width="750" height="330" rx="24" fill="url(#bgGradient)"/><path d="M0 330 Q375 250 750 330 L750 330 L0 330 Z" fill="#e3f2fd" opacity="0.5"/><text x="100" y="140" font-size="64" font-family="Arial, sans-serif" fill="#fff" font-weight="bold" text-anchor="start">新客见面礼</text><rect x="100" y="160" width="320" height="50" rx="25" fill="#ff4d4f"/><text x="130" y="195" font-size="28" font-family="Arial, sans-serif" fill="#fff" font-weight="bold">新客晋升 进阶领好礼</text><g transform="translate(550, 180)"><circle cx="0" cy="0" r="80" fill="#fff" opacity="0.9"/><path d="M-30,-40 Q0,-60 30,-40 Q40,-20 30,0 Q0,20 -30,0 Q-40,-20 -30,-40 Z" fill="#f44336"/><circle cx="-15" cy="-15" r="5" fill="#000"/><circle cx="15" cy="-15" r="5" fill="#000"/><path d="M-20,5 Q0,15 20,5" fill="none" stroke="#000" stroke-width="3"/><path d="M-40,20 L40,20" stroke="#f44336" stroke-width="5"/><path d="M-30,30 L30,30" stroke="#f44336" stroke-width="5"/></g><g transform="translate(620, 150)"><circle cx="0" cy="0" r="60" fill="#fff" opacity="0.9"/><path d="M-20,-30 Q0,-45 20,-30 Q25,-15 20,0 Q0,15 -20,0 Q-25,-15 -20,-30 Z" fill="#2196f3"/><circle cx="-10" cy="-10" r="3" fill="#000"/><circle cx="10" cy="-10" r="3" fill="#000"/><path d="M-15,3 Q0,10 15,3" fill="none" stroke="#000" stroke-width="2"/></g><circle cx="450" cy="220" r="20" fill="url(#goldGradient)"/><circle cx="480" cy="200" r="15" fill="url(#goldGradient)"/><circle cx="510" cy="230" r="18" fill="url(#goldGradient)"/><path d="M50,280 L150,260 L200,290 L100,310 Z" fill="#ff9800" opacity="0.8"/><path d="M180,270 L280,250 L330,280 L230,300 Z" fill="#ff9800" opacity="0.8"/></svg>