<svg width="24" height="30" viewBox="0 0 24 30" xmlns="http://www.w3.org/2000/svg"><title>car_result_end_point_bubble_</title><g fill="none" fill-rule="evenodd"><path d="M12 0c6.627 0 12 5.516 12 12.32 0 5.083-3 9.448-7.28 11.33-2.368 1.148-3.9 3.41-4.252 5.907-.018.248-.22.443-.468.443-.26 0-.472-.217-.472-.484l.006.073c-.342-2.514-1.874-4.793-4.253-5.94C3 21.766 0 17.4 0 12.32 0 5.514 5.375 0 12 0z" fill="#37F" fill-rule="nonzero"/><path d="M12.28 7.103c.236.137.37.4.344.672l-.298 3.05h1.9c.773 0 1.4.626 1.4 1.4 0 .248-.066.49-.19.706l-2.76 4.717c-.194.333-.623.446-.957.25-.236-.137-.37-.4-.344-.672l.297-3.05h-1.9c-.772 0-1.4-.626-1.4-1.4 0-.248.067-.49.192-.706l2.758-4.717c.195-.333.624-.446.958-.25zM7.1 8.43c.387 0 .7.313.7.7v.037c0 .386-.313.7-.7.7h-.7v5.266h.7c.387 0 .7.314.7.7v.037c0 .387-.313.7-.7.7h-.7c-.795 0-1.29-.43-1.385-.865L5 15.612V9.867c0-.875.48-1.394.933-1.437H7.1zm10.967 0c.452.043.933.562.933 1.437v5.745l-.015.093c-.096.435-.59.865-1.385.865h-.7c-.387 0-.7-.313-.7-.7v-.037c0-.386.313-.7.7-.7h.7V9.867h-.7c-.387 0-.7-.314-.7-.7V9.13c0-.387.313-.7.7-.7z" fill="#FFF"/></g></svg>