<svg width="26" height="32" viewBox="0 0 26 32" xmlns="http://www.w3.org/2000/svg"><title>航站楼</title><path d="M21.5 14c.276 0 .5.224.5.5V24h1.5c.276 0 .5.224.5.5v2c0 .276-.224.5-.5.5h-16c-.276 0-.5-.224-.5-.5v-2c0-.276.224-.5.5-.5H9v-4.5c0-.276.224-.5.5-.5h3c.276 0 .5.224.5.5V24h1v-9.5c0-.276.224-.5.5-.5h7zm-.5 8h-6v1h6v-1zm0-3h-6v1h6v-1zm0-3h-6v1h6v-1zm1.28-10.632l1.938.075c.48.02.92.268 1.183.67.2.303.114.71-.19.908-.027.02-.057.035-.087.05L7.286 15.177c-.032.014-.066.025-.1.03l-4.526.737c-.205.033-.41-.064-.513-.244L2.1 15.62c-.122-.208-.05-.475.158-.595l.004-.003.175-.1-1.774-.767c-.21-.09-.307-.336-.216-.546.037-.086.102-.156.184-.2l.59-.318c.106-.06.23-.076.346-.05l3.014.674 4.397-2.477-7.432-3.94c-.237-.126-.327-.42-.202-.656.047-.087.12-.158.208-.204l.677-.347c.098-.052.21-.068.318-.048L14.36 8.204l2.86-1.613c1.54-.867 3.293-1.29 5.06-1.222z" fill="#37F" fill-rule="evenodd"/></svg>