<svg width="26" height="32" viewBox="0 0 26 32" xmlns="http://www.w3.org/2000/svg"><title>停车场</title><g fill="none" fill-rule="evenodd"><path d="M13 1c6.627 0 12 5.516 12 12.32 0 5.083-3 9.448-7.28 11.33-2.368 1.148-3.9 3.41-4.252 5.907-.018.248-.22.443-.468.443-.26 0-.472-.217-.472-.484l.006.073c-.342-2.513-1.874-4.792-4.253-5.94C4 22.77 1 18.404 1 13.32 1 6.516 6.373 1 13 1z" fill="#37F"/><path d="M15 7c2.21 0 4 1.79 4 4s-1.79 4-4 4h-4v4.64c0 .2-.16.36-.36.36H9.36c-.2 0-.36-.16-.36-.36V7.36c0-.2.16-.36.36-.36H15zm0 2h-4v4h4c1.105 0 2-.895 2-2s-.895-2-2-2z" fill="#FFF"/></g></svg>