<svg width="48" height="60" viewBox="0 0 48 60" xmlns="http://www.w3.org/2000/svg"><title>drive_bubble_servicearea_icon</title><g transform="translate(1 2)" fill="none" fill-rule="evenodd"><ellipse fill="#000" opacity=".147" cx="23" cy="55.5" rx="6" ry="2.5"/><path d="M23.904 55.12c-.012.488-.412.88-.904.88-.453 0-.828-.332-.894-.766-.654-4.69-3.59-8.944-8.152-11.086v-.002l-.052-.022c-.127-.06-.256-.117-.386-.173l-.073-.03C5.51 40.292 0 32.288 0 22.997 0 10.297 10.297 0 23 0s23 10.296 23 22.997c0 9.49-5.75 17.636-13.954 21.15v.012c-4.52 2.122-7.45 6.32-8.142 10.96z" fill="#37F"/><path d="M23.904 55.12c-.012.488-.412.88-.904.88-.453 0-.828-.332-.894-.766-.654-4.69-3.59-8.944-8.152-11.086v-.002l-.052-.022c-.127-.06-.256-.117-.386-.173l-.073-.03C5.51 40.292 0 32.288 0 22.997 0 10.297 10.297 0 23 0s23 10.296 23 22.997c0 9.49-5.75 17.636-13.954 21.15v.012c-4.52 2.122-7.45 6.32-8.142 10.96zM15 42.5c.07.027.14.056.21.085 3.822 1.608 6.464 4.774 7.492 8.415h.605c1.032-3.636 3.677-6.798 7.495-8.404.396-.166.796-.312 1.198-.438v-.18C39.095 38.61 44 31.38 44 23c0-11.598-9.402-21-21-21S2 11.402 2 23c0 8.765 5.37 16.276 13 19.422v.077z" fill="#2F6DEB"/><path d="M30.652 31.462h2.61v-2.654h-2.61v2.654zm-9.565-4.465H33.51c.822 0 1.49.692 1.49 1.548v3.195c0 .856-.668 1.548-1.49 1.548h-2.846c0 .856-.668 1.712-1.49 1.712h-6.558c-.823 0-1.53-.692-1.53-1.548v-6.455zm-1.74-1.728v8.904c0 .456-.37.826-.825.826h-2.696c-.456 0-.826-.37-.826-.826V12.91c0-.503.407-.91.91-.91h8.108c3.664 0 6.634 2.97 6.634 6.635 0 3.664-2.97 6.634-6.634 6.634h-4.67zm0-8.847v4.423h4.746c1.22 0 2.21-.99 2.21-2.21 0-1.223-.99-2.213-2.21-2.213h-4.745z" fill="#FFF"/></g></svg>