<svg width="48" height="60" viewBox="0 0 48 60" xmlns="http://www.w3.org/2000/svg"><title>SVG_Pin_End@2x</title><g transform="translate(1 1)" fill="none" fill-rule="evenodd"><ellipse fill="#000" opacity=".147" cx="23" cy="55.5" rx="6" ry="2.5"/><path d="M23 0c12.703 0 23 10.296 23 22.997 0 9.49-5.748 17.636-13.953 21.15v.012c-4.53 2.126-7.463 6.336-8.147 10.986-.023.476-.417.854-.9.854-.453 0-.828-.333-.894-.766-.654-4.69-3.59-8.944-8.152-11.086-.037-.018-.074-.033-.11-.05-.108-.05-.217-.1-.328-.147l-.015-.004C5.54 40.33 0 32.31 0 22.996 0 10.297 10.297 0 23 0z" fill="#EB3B4C"/><path d="M20.792 29.017c-2.414.864-5.234 1.575-8.436 2.084l.38 2.796c3-.56 5.693-1.296 8.056-2.185v-2.693zM16.04 11c-.838 2.668-1.83 5.108-2.947 7.32-.305.48-.686.812-1.093.964l.66 2.414 2.125-.314c.46-.068.91-.133 1.357-.194l-.3.57c-.882 1.655-1.62 2.838-2.216 3.547-.33.305-.737.533-1.194.737l.686 2.388c2.058-.304 4.244-.89 6.582-1.804v-2.363c-1.17.483-2.364.89-3.532 1.194l.268-.396c1.27-1.912 2.808-4.755 4.61-8.55l-2.312-.838c-.508 1.118-.966 2.185-1.423 3.15l-2.235.306c1.17-1.88 2.338-4.27 3.456-7.166L16.04 11zm9.962 13.722l-1.398 2.06c2.49.61 4.93 1.473 7.268 2.565l1.296-2.033c-2.185-1.016-4.574-1.88-7.166-2.592zm-3.075 3.965l-1.5 2.21c3.863.94 7.6 2.237 11.233 3.863l1.423-2.21c-3.355-1.526-7.09-2.796-11.156-3.863zM24.96 11.05c-.762 2.745-2.21 5.058-4.345 6.964l1.677 2.16c.635-.585 1.22-1.195 1.78-1.83.71.813 1.498 1.576 2.336 2.338-1.855 1.423-3.99 2.49-6.378 3.202l1.296 2.338c2.694-.915 5.082-2.21 7.115-3.888 1.83 1.372 3.89 2.54 6.15 3.532l1.373-2.39c-2.058-.812-3.94-1.778-5.667-2.896 1.373-1.474 2.567-3.176 3.558-5.108v-2.134h-6.836c.23-.61.432-1.27.636-1.957l-2.694-.33zm3.278 8.03c-1.016-.812-1.93-1.676-2.795-2.59.1-.204.23-.408.356-.61h5.005c-.763 1.143-1.6 2.21-2.567 3.2z" fill="#FFF" fill-rule="nonzero"/><path d="M23 0c12.703 0 23 10.296 23 22.997 0 9.49-5.748 17.636-13.953 21.15v.012c-4.53 2.126-7.463 6.336-8.147 10.986-.023.476-.417.854-.9.854-.453 0-.828-.333-.894-.766-.654-4.69-3.59-8.944-8.152-11.086-.037-.018-.074-.033-.11-.05-.108-.05-.217-.1-.328-.147l-.015-.004C5.54 40.33 0 32.31 0 22.996 0 10.297 10.297 0 23 0zm0 2C11.402 2 2 11.402 2 23l.003.35c.14 8.616 5.47 15.97 12.998 19.073v.076l.21.085c3.822 1.608 6.465 4.774 7.492 8.415h.604c1.033-3.636 3.678-6.797 7.496-8.404.396-.166.796-.312 1.198-.44v-.177C39.096 38.607 44 31.376 44 23c0-11.598-9.402-21-21-21z" fill="#D83646"/></g></svg>