<svg width="48" height="60" viewBox="0 0 48 60" xmlns="http://www.w3.org/2000/svg"><title>服务区</title><g transform="translate(1 1)" fill="none" fill-rule="evenodd"><ellipse fill="#000" fill-rule="nonzero" opacity=".147" cx="23" cy="55.5" rx="6" ry="2.5"/><path d="M23 0c12.703 0 23 10.296 23 22.997 0 9.49-5.748 17.636-13.953 21.15v.012c-4.53 2.126-7.463 6.336-8.147 10.986-.023.476-.417.854-.9.854-.453 0-.828-.333-.894-.766-.654-4.69-3.59-8.944-8.152-11.086-.037-.018-.074-.033-.11-.05-.108-.05-.217-.1-.328-.147l-.015-.004C5.54 40.33 0 32.31 0 22.996 0 10.297 10.297 0 23 0z" fill="#008C7C" fill-rule="nonzero"/><path d="M29.652 31.462h2.61v-2.654h-2.61v2.654zM23.018 12c3.664 0 6.634 2.97 6.634 6.635 0 3.664-2.97 6.634-6.634 6.634h-4.67v8.904c0 .456-.37.826-.826.826h-2.696c-.456 0-.826-.37-.826-.826V12.91c0-.503.407-.91.91-.91h8.108zm9.49 14.997c.824 0 1.492.692 1.492 1.548v3.195c0 .856-.668 1.548-1.49 1.548h-2.846c0 .856-.668 1.712-1.49 1.712h-6.558c-.823 0-1.53-.692-1.53-1.548v-6.455zm-9.415-10.574h-4.745v4.423h4.745c1.22 0 2.21-.99 2.21-2.21 0-1.223-.99-2.213-2.21-2.213z" fill="#FFF"/><path d="M23 0c12.703 0 23 10.296 23 22.997 0 9.49-5.748 17.636-13.953 21.15v.012c-4.53 2.126-7.463 6.336-8.147 10.986-.023.476-.417.854-.9.854-.453 0-.828-.333-.894-.766-.654-4.69-3.59-8.944-8.152-11.086-.037-.018-.074-.033-.11-.05-.108-.05-.217-.1-.328-.147l-.015-.004C5.54 40.33 0 32.31 0 22.996 0 10.297 10.297 0 23 0zm0 2C11.402 2 2 11.402 2 23l.003.35c.14 8.616 5.47 15.97 12.998 19.073v.076l.21.085c3.822 1.608 6.465 4.774 7.492 8.416h.604c1.033-3.636 3.678-6.797 7.496-8.404.396-.166.796-.312 1.198-.44v-.177C39.096 38.607 44 31.376 44 23c0-11.598-9.402-21-21-21z" fill="#007063" fill-rule="nonzero"/></g></svg>