<svg width="48" height="60" viewBox="0 0 48 60" xmlns="http://www.w3.org/2000/svg"><title>SVG_Pin_Start</title><g transform="translate(1 1)" fill="none" fill-rule="evenodd"><ellipse fill="#000" opacity=".147" cx="23" cy="55.5" rx="6" ry="2.5"/><path d="M23 0c12.703 0 23 10.296 23 22.997 0 9.49-5.748 17.636-13.953 21.15v.012c-4.53 2.126-7.463 6.336-8.147 10.986-.023.476-.417.854-.9.854-.453 0-.828-.333-.894-.766-.654-4.69-3.59-8.944-8.152-11.086-.037-.018-.074-.033-.11-.05-.108-.05-.217-.1-.328-.147l-.015-.004C5.54 40.33 0 32.31 0 22.996 0 10.297 10.297 0 23 0z" fill="#1FB565"/><path d="M34.277 25.002l-2.516-.84-.044.66c-.07.896-.16 1.536-.285 1.908-.15.457-.482.71-1.04.71h-2.95c-.558-.024-.837-.278-.837-.786v-5.108h6.58V12.55H23.68v2.465h6.912v4.015H23.96v8.69c0 1.526.762 2.288 2.287 2.288h4.574c1.323 0 2.16-.33 2.542-.94.407-.636.712-1.982.915-4.066zm-21.37-1.677l2.362.28c-.052 1.5-.18 2.947-.382 4.345.61.965 1.27 1.702 1.982 2.236V22.08h-4.955v-2.44h4.345v-3h-3.913v-2.387h3.913V11h2.643v3.253h3.634v2.388h-3.634v3h3.964v2.44h-3.43v2.846h3.303v2.388h-3.303v4.015c1.575.304 4.37.482 8.386.482l1.835-.02c2.194-.03 3.895-.077 5.102-.158l-.457 2.542h-5.896c-5.972 0-9.707-.356-11.207-1.017-1.067-.51-2.032-1.297-2.87-2.415-.357 1.372-.763 2.694-1.272 3.94L11 32.88c1.118-2.872 1.753-6.048 1.906-9.555z" fill="#FFF" fill-rule="nonzero"/><path d="M23 0c12.703 0 23 10.296 23 22.997 0 9.49-5.748 17.636-13.953 21.15v.012c-4.53 2.126-7.463 6.336-8.147 10.986-.023.476-.417.854-.9.854-.453 0-.828-.333-.894-.766-.654-4.69-3.59-8.944-8.152-11.086-.037-.018-.074-.033-.11-.05-.108-.05-.217-.1-.328-.147l-.015-.004C5.54 40.33 0 32.31 0 22.996 0 10.297 10.297 0 23 0zm0 2C11.402 2 2 11.402 2 23l.003.35c.14 8.616 5.47 15.97 12.998 19.073v.076l.21.085c3.822 1.608 6.465 4.774 7.492 8.415h.604c1.033-3.636 3.678-6.797 7.496-8.404.396-.166.796-.312 1.198-.44v-.177C39.096 38.607 44 31.376 44 23c0-11.598-9.402-21-21-21z" fill="#1CA65D"/></g></svg>