<svg xmlns="http://www.w3.org/2000/svg" width="88" height="88" viewBox="0 0 88 88"><path fill-opacity=".9" d="M41.152 58.136l1.856-2.944c-2.112-1.216-3.808-2.688-5.12-4.352 1.6-.896 3.072-2.112 4.384-3.648l-2.112-2.144c-1.216 1.472-2.496 2.592-3.84 3.424-.704-1.312-1.216-2.72-1.536-4.256h5.632V29.688H25.76v24.32c0 .448-.288.768-.8.928l.8 2.944c3.584-.896 6.56-1.856 8.928-2.848l-.8-3.104c-1.6.768-3.2 1.376-4.832 1.888v-9.6h2.72c1.056 5.856 4.192 10.496 9.376 13.92zm-23.648.224V32.856h4c-.8 2.528-1.92 5.376-3.328 8.544 2.144 2.656 3.232 5.056 3.232 7.2 0 .512-.128.864-.384 1.056-.256.192-.768.288-1.536.352-.48 0-1.088-.064-1.792-.192l1.088 3.392c2.368-.032 4.064-.48 5.024-1.312.64-.64.96-1.76.96-3.296-.16-2.176-1.216-4.736-3.2-7.712 1.248-3.008 2.336-5.856 3.296-8.544V29.72H14.24v28.64h3.264zm19.648-22.848h-8.096v-2.688h8.096v2.688zm0 5.664h-8.096V38.52h8.096v2.656zm8.96-1.344c4.128-2.848 7.04-6.016 8.736-9.504l-3.04-1.44c-1.472 2.912-3.712 5.44-6.72 7.584l1.024 3.36zm27.008-6.144v-3.296H57.376v3.296H73.12zm-19.968 24.64V42.456c1.28-1.536 2.336-3.136 3.168-4.8l-3.008-1.408c-1.728 3.392-4.384 6.368-7.968 8.864l1.024 3.296c1.216-.864 2.4-1.76 3.488-2.656v12.576h3.296zm12.864-.128c2.368 0 3.552-1.056 3.552-3.168V41.624h4.928v-3.296H56.608v3.296h9.568V54.2c0 .64-.448.96-1.312.96-1.344 0-2.752-.096-4.224-.224l.736 3.264h4.64z"/></svg>