<svg xmlns="http://www.w3.org/2000/svg" width="88" height="88" viewBox="0 0 88 88"><path fill-opacity=".9" d="M34.944 58.296V40.952c2.24 3.04 4.032 5.824 5.376 8.32l2.816-1.952c-1.408-2.368-3.36-5.184-5.888-8.384l-2.304 1.44v-3.712c.448-1.152.864-2.304 1.248-3.52h5.6v-3.2H25.216v3.2h7.776c-1.792 5.376-4.896 9.984-9.28 13.824l2.048 2.656c2.272-2.048 4.256-4.352 5.92-6.848v15.52h3.264zM13.92 54.424c3.68-.832 7.168-1.856 10.432-3.072v-3.2c-1.28.48-2.56.928-3.84 1.344v-6.304h3.296v-3.168h-3.296v-5.952h3.744v-3.2H13.568v3.2h3.68v5.952h-3.2v3.168h3.2v7.2c-1.376.32-2.752.608-4.16.832l.832 3.2zm38.208 3.968V36.44c1.152-2.08 2.08-4.256 2.784-6.528l-3.168-1.504c-1.472 4.928-3.776 9.216-6.848 12.832l1.088 3.584c.96-1.024 1.888-2.112 2.752-3.2v16.768h3.392zm13.376-.032V46.616h.224c1.856 4.032 4.224 7.424 7.072 10.144l2.176-2.912c-2.816-2.08-4.992-4.48-6.56-7.232h5.92v-3.264h-8.832v-2.528h6.176V30.008H56.064v10.816h6.112v2.528h-8.512v3.264h5.6c-1.696 2.944-3.84 5.312-6.464 7.168l1.888 3.008c2.88-2.432 5.312-5.824 7.232-10.176h.256V58.36h3.328zm2.912-20.736h-9.088v-4.416h9.088v4.416z"/></svg>