<svg width="48" height="60" viewBox="0 0 48 60" xmlns="http://www.w3.org/2000/svg"><title>Pin_Facility_Oil_Sinopec</title><g transform="translate(1 2)" fill="none" fill-rule="evenodd"><ellipse fill="#000" opacity=".147" cx="23" cy="55.5" rx="6" ry="2.5"/><path d="M23.904 55.12c-.012.488-.412.88-.904.88-.453 0-.828-.332-.894-.766-.654-4.69-3.59-8.944-8.152-11.086v-.002l-.052-.022c-.127-.06-.256-.117-.386-.173l-.073-.03C5.51 40.292 0 32.288 0 22.997 0 10.297 10.297 0 23 0s23 10.296 23 22.997c0 9.49-5.75 17.636-13.954 21.15v.012c-4.52 2.122-7.45 6.32-8.142 10.96z" fill="#EB3B4C"/><path d="M23.904 55.12c-.012.488-.412.88-.904.88-.453 0-.828-.332-.894-.766-.654-4.69-3.59-8.944-8.152-11.086v-.002l-.052-.022c-.127-.06-.256-.117-.386-.173l-.073-.03C5.51 40.292 0 32.288 0 22.997 0 10.297 10.297 0 23 0s23 10.296 23 22.997c0 9.49-5.75 17.636-13.954 21.15v.012c-4.52 2.122-7.45 6.32-8.142 10.96zM15 42.5c.07.027.14.056.21.085 3.822 1.608 6.464 4.774 7.492 8.415h.605c1.032-3.636 3.677-6.798 7.495-8.404.396-.166.796-.312 1.198-.438v-.18C39.095 38.61 44 31.38 44 23c0-11.598-9.402-21-21-21S2 11.402 2 23c0 8.765 5.37 16.276 13 19.422v.077z" fill="#D83646"/><circle cx="18" cy="18" r="18" transform="translate(5 5)" fill="#FFF" fill-rule="nonzero"/><g><path d="M31.16 29.98c2.44-2.22 3.973-5.42 3.973-8.98C35.133 14.3 29.7 8.867 23 8.867 16.3 8.867 10.867 14.3 10.867 21c0 1.56.294 3.05.83 4.42m2.257 2.985c.62.99 2.19 2.383 3.054 2.868" stroke="#F00F0F" stroke-width="1.867" opacity=".937"/><path d="M21.958 10.792l-.095.03-.092.016-.092.03h-.016l-.03.016h-.063l-.03.016-.127.015-.124.044h-.032l-.046.016-.03.014-.033.016-.016.046-.015 10.893h-.017l-.9-10.45V11.4l-.03-.077-.062.016-.047.015-.155.06-.265.124-.123.06-.125.045-.077.06-.032.032-.016.076.016 23.754.063.03.822-.014h.03l.015-.03.033-8.753.932 8.783H22.02l.015-.016V10.822l-.033-.016-.044-.015zm1.646 10.467l-.032.03-.03.03-.018.03-.015.076v.093l-.015.09.014.076v.608l-.015.107-.03.047-.063.045-.048.046-.06.03-.064.062-.078.03-.045.03-.062.046-.048.03-.03.047h-.047v-.016h-.016v-.03l-.015-.106-.032-.06-.016-.016h-.078l-.046.046-.063.03-.045.076-.047.06-.03.077-.032.167-.046.137-.03.076-.03.108.013.06.047.108.047.03.033.045.014.016.03.014h.095l.03-.015.016-.017.015-.03.017-.09.03-.062.032-.076.046-.09.03-.062.046-.045.063-.06.063-.047.077-.06.11-.076.078-.016.06-.015h.062l.017.03v.213l-.017.06-.014.047-.064.06-.063.078-.06.03-.048.046-.016.03-.032.03-.015.032v.091l.015.03h.017l.045.015.03.03h.14v.03l.016.016v.046l-.016.062v1.112l.016.257-.016.122v.152l.016.06.014.06.017.017.03.03h.092l.016-.03.015-.032.017-.06.014-.093v-.15l-.014-.123v-.321l.014-.09V23.6l.032-.03h.015l.06-.03h.02v-.608l-.033.014-.047.015h-.015l-.016-.03v-.017l-.016-.014v-.06l.016-.03.03-.048.032-.03h.048v-.427h-.018v-.03l-.014-.046-.016-.03v-.199l.016-.197.014-.153V21.426h.018v-.106h-.018v-.03l-.014-.03-.047-.016-.047-.014-.014.03zm.14.076v.09-.106.016zm2.39.594v.29h.155l.06.014h.048l.06.045.033.045.017.092.015.06.015.076.017.046.014.076v.242l.017.122.014.123.015.06.016.06v.351l.017.09.03.108v.183l-.015.06-.015.076-.016.048-.015.045-.016.03-.032.03-.046.032h-.045l-.062.014h-.033l-.03.015h-.032v.075l.03.047.032.045.033.076.044.076v.016l.03.015h.108l.033-.015.047-.016.03-.046.032-.03v-2.633h-.063l-.046-.016h-.281l-.076-.015-.11-.015h-.03zm-.048 0l-.09.03-.08.03-.093.046-.092.045-.045.018v.21h.03l.125-.06.123-.014.156-.015h.014v-.29h-.048zm.653 2.678l.077-.12.03-.153.03-.107.05-.122.03-.122.03-.106.017-.076.03-.06.017-.046.016-.062-.032-.03v-.06l-.03-.062-.017-.09v-.108l-.015-.107-.015-.106v-.105l-.015-.092-.016-.107v-.182l-.015-.137-.032-.168v-.092l-.03-.076-.03-.06-.03-.047-.033-.015-.016-.015v2.633zm2.546-2.572l-.046.015-.063.017h-.046l-.015.014h-.108l-.094.032h-.094l-.078.015H28.572l-.078.015-.076.03-.064.032-.045.03-.08.015-.06.03-.05.03v.03l.017.03.032.047.045.03.108.076.062.046h.186l.17-.017.187-.03.107-.015.078-.03.077-.03.063-.03.062-.047.03-.06.047-.045.032-.046.015-.032v-.076l-.014-.014v-.03h-.032l-.046-.032h-.062zm-3.65.09l-.108.047-.062.015-.06.016-.064.03-.062.045-.014.03-.018.015v.03l.018.03.014.016.03.017h.064l.076-.016.095-.014.14-.077v-.212l-.048.03zm5.576.047h-.032l-.062.015-.047.03-.045.03-.047.03-.046.062-.03.046-.063.106-.063.107-.078.106-.063.09-.078.108-.08.076-.076.09-.078.077-.124.076-.14.06-.062.047-.046.045.015.046.03.016.03.03h.032l.077.016h.14l.046-.015h.047l.03-.03.063-.076.077-.076.032-.03.03-.03h.017l.015-.032h.045l.03.047v.151l.02.153-.02.153-.03.09-.077.092-.03.06-.032.077-.077.03-.046.045v.06l.015.017.03.015h.186l.06-.015.065-.016.046-.03.047-.045.046-.03.016-.03.03-.03.016-.046.016-.032.016-.122v-.09l-.016-.093-.016-.12-.016-.153v-.153l-.03-.06-.046-.077-.033-.03-.03-.03-.015-.045-.016-.03.03-.092.08-.107.06-.122.048-.06.093-.047.093-.076.047-.03.045-.045.033-.046v-.076h-.015l-.017-.016-.03-.015-.046-.016v.016zm2.67.06h-.047l-.03.032-.016.044-.016.076v.075l.015.093v.197l-.016.123-.017.12v.123l.017.076.015.108v.137l-.016.046-.048.06-.045.077-.077.045-.094.076-.172.108-.154.09-.063.032-.047.014h-.076l-.063.03h-.452l-.076-.03-.078-.014-.077-.03-.063-.032-.063-.06-.046-.016-.045-.03-.033-.03-.03-.047-.015-.06-.015-.046v-.153l.015-.106v-.076l.015-.107.047-.075.06-.092.11-.045.093-.06.078-.048.14-.12.124-.138.094-.062.076-.06.033-.046.03-.03.046-.046.03-.047v-.016l-.03-.015-.03-.015-.08-.03h-.107l-.076.014-.047.03-.093.06-.078.092-.048.045-.045.03-.047.03-.063.016h-.046l-.03-.015-.033-.015v-.046l-.03-.03-.015-.03-.016-.016h-.032l-.078.017-.062.03-.046.03-.03.03-.032.03-.016.016-.016.06v.048l.016.076v.046l-.016.06-.03.062-.016.045-.03.03-.032.03-.048.03-.077.046-.078.03h-.015l-.015.047-.032.03h-.014l.015.03.017.03h.186l.032.03.014.017.016.06v.518l-.016.06.016.077.015.044.03.06.063.047.078.03.062.03.078.016h.076l.125.015h.216l.094.016h.312l.092-.016.092-.03.078-.016.08-.03.122-.06.11-.063.108-.045.11-.092.106-.075.095-.077.078-.105.093-.092.062-.076.063-.06.046-.046.03-.046V23.3l.016-.047v-.03l-.015-.03v-.046l-.03-.03-.047-.077-.032-.075-.015-.108-.015-.106v-.363l-.015-.062-.016-.046-.015-.046h-.047zm-9.704.06l-.094.016-.062.015h-.03l-.03.015h-.189l-.03-.015v-.016.426l.046.015.014.016h.017l.015.016.017.015-.03.046-.048.06-.03.032v.608l.046-.015.124-.03.124-.016h.046l.032-.015.015-.03.016-.016v-.03l-.015-.03-.014-.03-.032-.046-.03-.06-.032-.047v-.105l.062-.078.078-.076.093-.045.093-.046.062-.03.078-.015.03-.046.047-.046.03-.045.032-.06.017-.016v-.153l-.017-.03-.03-.047-.046-.015-.094-.016-.108-.016-.077-.015-.092.014zm1.832.124l-.015.044v.078l.09.092.05.03v-.26h-.064l-.047-.014-.015.03zm.124.244l.03.03.048.016.03-.016.032-.014v-.124l-.015-.03-.018-.046-.03-.03-.015-.03h-.032l-.03-.016v.26zm-1.49-.122l.014-.06-.014-.06v.12zm1.04-.06v.562h.015l.015.015.016.016-.015.016-.016.03-.015-.014v.304l.046-.045.032-.03.045-.03h.048l.015.03h.015l-.03.06-.048.077.048.03.06.046v.09l-.03.032-.03.076-.062.108-.047.09-.06.077v.487h.06l.124.045.125.03.063-.014.076-.046v-.35l-.062-.016h-.062l-.047.017-.047.015-.046.03h-.047l-.016-.03h-.014l-.016-.015v-.016l.108-.166.094-.152h.015l.03.046.033.03.045.076.03.06v-.364l-.014-.03-.017-.03.016-.077.014-.06v-.306l-.015.015-.017.047-.03.013h-.033l-.015-.014-.015-.017-.015-.03V23.1l-.016-.092.015-.075v-.047l.015-.045v-.016l-.063-.06-.077-.046-.063-.106-.06-.106-.048-.03h-.015zm-.017 0l-.03.045-.015.03.015.077.03.06.018.046v-.26h-.018zm-1.023.06v.03-.03zm3.74.183l-.06.046-.08.03-.06.06-.047.048-.03.06v.046l-.047.137-.032.137-.03.107-.047.153-.046.106-.046.136-.078.184-.077.18-.063.154-.078.183-.14.244-.124.168v.35l.016-.015.077-.138.096-.136.045-.093.064-.106.062-.09.047-.107.093-.153.093-.152.03-.076.03-.06h.016v.12l.032.123.046.014.062.016H28.277l.06-.017.047-.03.047-.046.047-.046.014-.06v-.091l-.015-.06-.018-.03v-.093l.032-.045.078-.03.14-.016.14-.03h.108l.032.03.03.016.015.015.016.015-.016.045-.03.06-.078.092-.08.092-.03.03v.091l.016.047.015.014.033.015h.015l.03.014h.124l.11-.045.108-.047.094-.03.108-.03h.048l.047-.03.03-.016.03-.015.016-.046v-.03l-.155-.075-.124-.076.03-.077.032-.077.046-.06.048-.077.06-.047.063-.106.032-.03v-.106l-.032-.06v-.016l-.032-.03h-.122l-.062.046-.156.06-.155.107-.093.015-.093.046h-.08l-.077.015h-.093l-.078-.015-.03-.03h-.078l-.046.03h-.03l-.033.015-.03-.015h-.032l-.03-.03-.015-.03-.017-.047-.015-.03v-.046l.016-.044.05-.108.044-.106.016-.076.015-.075.033-.062.044-.046v-.09h-.03l-.032-.015h-.015zm-2.717.046l-.014.016-.047.015-.078.016h-.092l-.048.014-.046.016-.046.03-.048.03-.046.032-.015.045-.016.03v.06l.032.016h.03l.048.016.062.014.032.03v.047l-.047.06-.03.077v.014l.013.03.017.017.015.046.046.03v.016l.017.015v.046l-.03.076-.065.045-.062.06-.046.06-.062.047-.047.076-.03.015v.108l.077.015.093-.014.124-.046.202-.106.077-.046.048-.046v-.137l-.032.015-.063.03h-.092l.03-.06.062-.107.077-.107.018-.014v-.304h-.018l-.014-.016.014-.03.018-.016v-.304l-.018.03zm-.79.09l-.032.048-.03.03-.016.046v.106l-.017.106v.108l-.016.12v.123l-.014.106-.018.075-.044.077-.046.076v.38l.03.077.017.014h.03l.063-.015.047-.047.046-.06.032-.046.015-.076.03-.09.017-.093.015-.075V22.983l-.015-.092-.016-.045-.046-.016-.032.03zm1.382.2l-.018.015-.014.016-.048.03-.03.047-.016.014v.305-.015l.063-.076.062-.106.03-.06.03-.047.017-.06v-.03h-.017l-.016-.016-.03-.015h-.015zm-.575.593v.136l.03-.015.03-.03v-.075l-.046-.016h-.015zm.45.395v.014l.03.03.032.03.03.047.047.015h.045l.017-.015h.014l.017-.046v-.03l-.047-.075-.046-.076-.032-.077-.03-.077-.032-.045-.03-.044-.016-.016v.365zm-1.508-.075v.197l.017.076v-.335l-.017.062zm.98.105l-.08.076-.077.062-.108.046-.076.077-.018.03v.03l.018.046.014.016.016.03h.187l.123.016h.08v-.487l-.08.06zm.527.442l.078-.03.03-.046.017-.06v-.045l-.018-.06-.03-.047-.032-.046-.046-.015v.35zm1.117.442l-.152.242-.172.23-.078.105-.077.106-.03.046v.288l.077-.06.03-.062.048-.06.11-.123.093-.12.06-.077.048-.076.045-.09.048-.063v-.35l-.047.062zm-.542.79l-.093.122-.093.122-.093.136-.015.016v.046l.014.03h.078l.092-.092.094-.105.045-.047v-.29l-.032.062zm.326 4.506l-.263.213-.03.044v5.07h.062l.032-.837.014-.092v-.092h.016l.434.396v-.7l-.372-.018v-2.92l.172-.017h.2v-1.263l-.015-.015-.25.23zm.264 1.05H27.594l.077.016.017.044v.046l-.016 2.817-.03.03H27.298v.7l.39.348h.03l.884-.776.033-.044v-.184l-.017-2.97v-.06l-.016-.075-.03-.045-.046-.062-.064-.077-.092-.09-.2-.184-.22-.197-.216-.183-.203-.167-.153-.106-.08-.048v1.263zm-3.554-1.05v1.066h.604v2.86h-.604v1.263l.122.122.078-.045.14-.122.187-.167.203-.198.17-.183v-4.23l-.668-.58-.23.214zm5.496.99v3.21l1.273 1.127 1.35-1.187h-1.677v-1.02h1.677V32.4v.018h-1.677v-1.083l1.677-.03v-.03h-.015l-1.32-1.203-1.288 1.173zm4.455-1.067h-.047l-.246.274-.265.258-.28.244-.263.243-.048.06-.046.045-.016 3.06V34.533l.016.046.124.138.14.106.14.137.14.136.108.076.078.09.094.077.092.09.048.046.045.046.062.06.046.016h.016l.03-.015.062-.046.063-.06.075-.077.157-.153.093-.09.17-.168.172-.153.156-.152.17-.153.047-.044.046-.062.062-.03.03-.06v-.99h-.76v1.02l-.482.014-.078.016h-.2l-.062-.016v-2.968H34.207v1.05h.746l.015-.242v-.26l-.016-.244v-.319l-.016-.062-1.212-1.156h-.03zM22.64 31.23v3.135l1.104 1.08v-1.262h-.188l-.014-2.878.202.017v-1.066l-1.103.974zm3.882-.532l-.248.228-.11.09-.03.03v4.537h.605v-5.07l-.218.185zm-1.878 4.154l.232-.243.28-.275.077-.076.077-.093V31.2l-.666-.58v4.232zm1.396-3.728l.094-.078v4.537h-.187l-.015-4.353.047-.06.06-.046zm-9.91-6.988c-2.046 1.553-3.07 3.23-3.07 5.033 0 1.7 1.997 1.417 2.816 3.12.546 1.137.255 2.242-.874 3.316H10.88c.94-1.135 1.437-1.702 1.49-1.702.08 0 .69.312 1.372-.224.365-.288.396-.864 0-1.328-.47-.55-1.745-1.003-2.134-1.476-.838-1.02-.284-3.294.87-4.762.767-.98 1.985-1.638 3.65-1.978zm2.645-12.132V35.61H17.67V12.55l1.105-.546z" fill="#292728"/></g></g></svg>