<svg width="48" height="64" viewBox="0 0 48 64" xmlns="http://www.w3.org/2000/svg"><title>途经点2</title><g transform="translate(1 6)" fill="none" fill-rule="evenodd"><ellipse fill="#000" opacity=".147" cx="23" cy="55.5" rx="6" ry="2.5"/><path d="M23.904 55.12c-.012.488-.412.88-.904.88-.453 0-.828-.332-.894-.766-.654-4.69-3.59-8.944-8.152-11.086v-.002l-.052-.022c-.127-.06-.256-.117-.386-.173l-.073-.03C5.51 40.292 0 32.288 0 22.997 0 10.297 10.297 0 23 0s23 10.296 23 22.997c0 9.49-5.75 17.636-13.954 21.15v.012c-4.52 2.122-7.45 6.32-8.142 10.96z" fill="#37F"/><path d="M23.486 13.072c1.794 0 3.276.52 4.446 1.56 1.144 1.04 1.716 2.366 1.716 4.03 0 1.612-.624 3.068-1.82 4.394-.728.78-2.028 1.768-3.848 2.99-1.898 1.248-3.042 2.34-3.458 3.276h9.152V32H16.726c0-1.898.598-3.536 1.846-4.94.676-.78 2.106-1.924 4.264-3.406 1.196-.832 2.028-1.534 2.548-2.08.806-.91 1.222-1.898 1.222-2.938 0-1.014-.286-1.768-.806-2.262-.546-.494-1.352-.728-2.418-.728-1.144 0-2.002.39-2.574 1.17-.572.728-.884 1.846-.936 3.302H16.83c.026-2.08.624-3.744 1.82-5.018 1.222-1.352 2.834-2.028 4.836-2.028z" fill="#FFF" fill-rule="nonzero"/><path d="M23.904 55.12c-.012.488-.412.88-.904.88-.453 0-.828-.332-.894-.766-.654-4.69-3.59-8.944-8.152-11.086v-.002l-.052-.022c-.127-.06-.256-.117-.386-.173l-.073-.03C5.51 40.292 0 32.288 0 22.997 0 10.297 10.297 0 23 0s23 10.296 23 22.997c0 9.49-5.75 17.636-13.954 21.15v.012c-4.52 2.122-7.45 6.32-8.142 10.96zM15 42.5c.07.027.14.056.21.085 3.822 1.608 6.464 4.774 7.492 8.415h.605c1.032-3.636 3.677-6.798 7.495-8.404.396-.166.796-.312 1.198-.438v-.18C39.095 38.61 44 31.38 44 23c0-11.598-9.402-21-21-21S2 11.402 2 23c0 8.765 5.37 16.276 13 19.422v.077z" fill="#2F6DEB"/></g></svg>