<svg width="76" height="96" viewBox="0 0 76 96" xmlns="http://www.w3.org/2000/svg" xmlns:xlink="http://www.w3.org/1999/xlink"><title>Pin_Mid_WayOf_Close3</title><defs><path d="M34.298 89.743C34.28 90.44 33.706 91 33 91c-.65 0-1.188-.475-1.283-1.094-.938-6.7-5.152-12.778-11.696-15.837v-.004c-.024-.01-.05-.02-.073-.032-.183-.085-.368-.167-.555-.247l-.104-.044C7.908 68.56 0 57.126 0 43.853 0 25.707 14.775 11 33 11s33 14.708 33 32.852c0 13.557-8.248 25.195-20.02 30.214v.018c-6.487 3.033-10.69 9.03-11.682 15.66z" id="b"/><filter x="-8.3%" y="-4.4%" width="116.7%" height="113.7%" filterUnits="objectBoundingBox" id="a"><feOffset dy="2" in="SourceAlpha" result="shadowOffsetOuter1"/><feGaussianBlur stdDeviation="1.5" in="shadowOffsetOuter1" result="shadowBlurOuter1"/><feComposite in="shadowBlurOuter1" in2="SourceAlpha" operator="out" result="shadowBlurOuter1"/><feColorMatrix values="0 0 0 0 0 0 0 0 0 0 0 0 0 0 0 0 0 0 0.0909193841 0" in="shadowBlurOuter1"/></filter></defs><g fill="none" fill-rule="evenodd"><g transform="translate(1 1)"><ellipse fill="#000" opacity=".147" cx="33" cy="91" rx="9" ry="4"/><use fill="#000" filter="url(#a)" xlink:href="#b"/><path stroke-opacity=".08" stroke="#000" stroke-width="3" d="M32.8 89.677l.014-.156c.052-.35.113-.698.182-1.043.05.26.097.52.14.78l.046.306.014.096c-.023-.096-.104-.16-.196-.16-.1 0-.184.075-.2.177zm.207-1.257c1.31-6.512 5.482-12.145 11.472-15.267v-.078l.91-.39c11.498-4.9 19.11-16.17 19.11-28.833C64.5 26.538 50.398 12.5 33 12.5S1.5 26.538 1.5 43.852c0 12.39 7.286 23.46 18.372 28.51l.11.046c.2.086.398.174.556.248l.07.03.035.05.013-.026c6.454 3.017 10.96 8.876 12.326 15.696h.023l.002.014zm-.207 1.257l-.002.028.002-.028z" stroke-linejoin="square" fill="#37F"/><path d="M33.078 30c2.448 0 4.454.578 5.95 1.768 1.462 1.19 2.21 2.822 2.21 4.93 0 2.652-1.36 4.42-4.046 5.304 1.428.442 2.55 1.088 3.298 1.972.816.918 1.224 2.108 1.224 3.536 0 2.244-.782 4.08-2.346 5.508-1.632 1.462-3.774 2.21-6.426 2.21-2.516 0-4.556-.646-6.086-1.938-1.7-1.428-2.652-3.536-2.856-6.256h4.046c.068 1.564.544 2.788 1.496 3.638.85.782 1.972 1.19 3.366 1.19 1.53 0 2.754-.442 3.638-1.292.782-.782 1.19-1.734 1.19-2.89 0-1.394-.442-2.414-1.258-3.06-.816-.68-2.006-.986-3.57-.986h-1.7v-2.992h1.7c1.428 0 2.516-.306 3.264-.918.714-.612 1.088-1.53 1.088-2.72 0-1.19-.34-2.074-.986-2.686-.714-.612-1.768-.918-3.162-.918-1.428 0-2.516.34-3.298 1.054-.816.714-1.292 1.802-1.428 3.264h-3.91c.204-2.448 1.088-4.352 2.72-5.712 1.53-1.36 3.502-2.006 5.882-2.006z" fill="#FFF" fill-rule="nonzero"/><circle stroke="#E81200" stroke-width="3.517" fill="#FFF" cx="57" cy="17" r="15.241"/><path d="M57.5 13.66l4.798-4.797 3.84 3.84-4.8 4.797 4.8 4.798-3.84 3.84-4.798-4.8-4.798 4.8-3.84-3.84 4.8-4.798-4.8-4.798 3.84-3.84 4.798 4.8z" fill="#E81200"/></g></g></svg>