<svg width="48" height="60" viewBox="0 0 48 60" xmlns="http://www.w3.org/2000/svg"><title>Pin_LongPress_Red</title><g transform="translate(1 2)" fill="none" fill-rule="evenodd"><ellipse fill="#000" opacity=".147" cx="23" cy="55.5" rx="6" ry="2.5"/><path d="M23.904 55.12c-.012.488-.412.88-.904.88-.453 0-.828-.332-.894-.766-.654-4.69-3.59-8.944-8.152-11.086v-.002l-.052-.022c-.127-.06-.256-.117-.386-.173l-.073-.03C5.51 40.292 0 32.288 0 22.997 0 10.297 10.297 0 23 0s23 10.296 23 22.997c0 9.49-5.75 17.636-13.954 21.15v.012c-4.52 2.122-7.45 6.32-8.142 10.96z" fill="#EB3B4C"/><path d="M23.904 55.12c-.012.488-.412.88-.904.88-.453 0-.828-.332-.894-.766-.654-4.69-3.59-8.944-8.152-11.086v-.002l-.052-.022c-.127-.06-.256-.117-.386-.173l-.073-.03C5.51 40.292 0 32.288 0 22.997 0 10.297 10.297 0 23 0s23 10.296 23 22.997c0 9.49-5.75 17.636-13.954 21.15v.012c-4.52 2.122-7.45 6.32-8.142 10.96zM15 42.5c.07.027.14.056.21.085 3.822 1.608 6.464 4.774 7.492 8.415h.605c1.032-3.636 3.677-6.798 7.495-8.404.396-.166.796-.312 1.198-.438v-.18C39.095 38.61 44 31.38 44 23c0-11.598-9.402-21-21-21S2 11.402 2 23c0 8.765 5.37 16.276 13 19.422v.077z" fill="#D83646"/><circle fill="#FFF" cx="23" cy="23" r="8"/></g></svg>