<svg width="48" height="60" viewBox="0 0 48 60" xmlns="http://www.w3.org/2000/svg"><title>Pin_Mid_Checkpoint</title><g transform="translate(1 2)" fill="none" fill-rule="evenodd"><ellipse fill="#000" opacity=".147" cx="23" cy="55.5" rx="6" ry="2.5"/><path d="M23.904 55.12c-.012.488-.412.88-.904.88-.453 0-.828-.332-.894-.766-.654-4.69-3.59-8.944-8.152-11.086v-.002l-.052-.022c-.127-.06-.256-.117-.386-.173l-.073-.03C5.51 40.292 0 32.288 0 22.997 0 10.297 10.297 0 23 0s23 10.296 23 22.997c0 9.49-5.75 17.636-13.954 21.15v.012c-4.52 2.122-7.45 6.32-8.142 10.96z" fill="#37F"/><path d="M23.904 55.12c-.012.488-.412.88-.904.88-.453 0-.828-.332-.894-.766-.654-4.69-3.59-8.944-8.152-11.086v-.002l-.052-.022c-.127-.06-.256-.117-.386-.173l-.073-.03C5.51 40.292 0 32.288 0 22.997 0 10.297 10.297 0 23 0s23 10.296 23 22.997c0 9.49-5.75 17.636-13.954 21.15v.012c-4.52 2.122-7.45 6.32-8.142 10.96zM15 42.5c.07.027.14.056.21.085 3.822 1.608 6.464 4.774 7.492 8.415h.605c1.032-3.636 3.677-6.798 7.495-8.404.396-.166.796-.312 1.198-.438v-.18C39.095 38.61 44 31.38 44 23c0-11.598-9.402-21-21-21S2 11.402 2 23c0 8.765 5.37 16.276 13 19.422v.077z" fill="#2F6DEB"/><path d="M12.368 15.832h2.808v-4.488h2.232v4.488h2.28v2.184h-2.28v1.032c.96.96 1.92 2.04 2.88 3.24l-1.296 1.944c-.6-1.152-1.128-2.112-1.584-2.88v12h-2.232V22.648c-.672 1.968-1.488 3.792-2.448 5.472l-.984-2.52c1.536-2.208 2.664-4.752 3.384-7.584h-2.76v-2.184zm10.704 3.024c-.816.816-1.68 1.56-2.568 2.184l-1.224-1.92c2.76-1.968 4.896-4.56 6.384-7.752h2.112c1.248 2.928 3.432 5.52 6.504 7.728l-1.248 1.92c-.936-.672-1.776-1.368-2.52-2.088V20.2h-7.44v-1.344zm6.624-.768c-1.224-1.344-2.208-2.832-2.976-4.464-.864 1.704-1.848 3.192-2.952 4.464h5.928zm-9.864 12.504h8.232c.912-2.496 1.704-5.568 2.4-9.192l2.16.552c-.624 3.216-1.416 6.096-2.328 8.64h3.432V32.8H19.832v-2.208zm3.072-8.544c.624 2.016 1.2 4.344 1.68 6.984l-1.992.528c-.456-2.376-1.008-4.656-1.656-6.84l1.968-.672zm3.6-.84c.6 1.944 1.128 4.176 1.608 6.696l-2.064.552c-.384-2.304-.888-4.512-1.488-6.624l1.944-.624z" fill="#FFF" fill-rule="nonzero"/></g></svg>