<svg width="48" height="60" viewBox="0 0 48 60" xmlns="http://www.w3.org/2000/svg"><title>Pin_Facility_Oil_CNPC</title><defs><radialGradient cy="57.664%" fx="50%" fy="57.664%" r="51.709%" gradientTransform="matrix(0 -1 .99237 0 -.072 1.077)" id="a"><stop stop-color="#FEDF00" offset="0%"/><stop stop-color="#F0670C" offset="100%"/></radialGradient></defs><g transform="translate(1 2)" fill="none" fill-rule="evenodd"><ellipse fill="#000" opacity=".147" cx="23" cy="55.5" rx="6" ry="2.5"/><path d="M23.904 55.12c-.012.488-.412.88-.904.88-.453 0-.828-.332-.894-.766-.654-4.69-3.59-8.944-8.152-11.086v-.002l-.052-.022c-.127-.06-.256-.117-.386-.173l-.073-.03C5.51 40.292 0 32.288 0 22.997 0 10.297 10.297 0 23 0s23 10.296 23 22.997c0 9.49-5.75 17.636-13.954 21.15v.012c-4.52 2.122-7.45 6.32-8.142 10.96z" fill="#EB3B4C"/><path d="M23.904 55.12c-.012.488-.412.88-.904.88-.453 0-.828-.332-.894-.766-.654-4.69-3.59-8.944-8.152-11.086v-.002l-.052-.022c-.127-.06-.256-.117-.386-.173l-.073-.03C5.51 40.292 0 32.288 0 22.997 0 10.297 10.297 0 23 0s23 10.296 23 22.997c0 9.49-5.75 17.636-13.954 21.15v.012c-4.52 2.122-7.45 6.32-8.142 10.96zM15 42.5c.07.027.14.056.21.085 3.822 1.608 6.464 4.774 7.492 8.415h.605c1.032-3.636 3.677-6.798 7.495-8.404.396-.166.796-.312 1.198-.438v-.18C39.095 38.61 44 31.38 44 23c0-11.598-9.402-21-21-21S2 11.402 2 23c0 8.765 5.37 16.276 13 19.422v.077z" fill="#D83646"/><circle fill="#FFF" fill-rule="nonzero" cx="23" cy="23" r="18"/><path d="M19.348 23.115c-1.12.5-8.328 3.346-9.41 3.774-.254-.733-.63-1.425-1.13-2.074-1.076-1.393-1.077-2.786-.003-4.178.496-.646.87-1.33 1.12-2.056 1.032.345 8.23 2.744 9.374 3.09 1.23.375 1.257.904.048 1.443zm.292-2.287c-.866-.203-8.74-2.328-9.612-2.564.22-.75.315-1.542.283-2.376-.07-1.772.73-2.9 2.4-3.382.782-.224 1.486-.56 2.112-1.005.844 1.226 4.968 7.217 5.645 8.184.756 1.08.09 1.358-.827 1.144zm1.51-1.79c-.61-.69-5.316-6.736-6.08-7.72.61-.473 1.14-1.055 1.59-1.748.963-1.476 2.26-1.908 3.888-1.295.75.283 1.5.433 2.25.456-.043 1.382-.265 8.535-.284 9.91-.022 1.524-.7 1.148-1.365.398zm2.24-.398c-.035-.756-.286-8.457-.333-9.908.79-.007 1.583-.16 2.377-.46 1.626-.615 2.922-.186 3.887 1.29.45.686.977 1.263 1.58 1.732-.658.83-4.795 6.055-6 7.544-1.31 1.623-1.47.638-1.51-.198zm2.92 2.09c-1.48.35-1.323-.263-.777-1.195.5-.857 4.89-7.06 5.6-8.065.635.453 1.348.794 2.142 1.022 1.67.48 2.472 1.605 2.405 3.38-.032.828.063 1.613.28 2.358-1.093.286-8.28 2.173-9.65 2.5zM36.023 27c-1.35-.55-8.37-3.417-9.417-3.836-1.16-.463-1.106-1.12-.098-1.442.926-.296 8.37-2.83 9.537-3.228.254.75.635 1.46 1.148 2.123 1.076 1.393 1.077 2.786.003 4.178-.53.69-.922 1.425-1.173 2.205z" fill="url(#a)"/><path d="M36 27.754c-.227.757-.326 1.554-.292 2.397.07 1.765-.73 2.886-2.404 3.366-1.673.48-2.99 1.454-3.954 2.923-.964 1.467-2.26 1.897-3.893 1.286-1.63-.61-3.26-.61-4.89.003-1.63.612-2.927.185-3.894-1.283-.966-1.467-2.284-2.438-3.958-2.917-1.674-.477-2.475-1.598-2.408-3.36.032-.855-.07-1.664-.307-2.43L22.954 24 36 27.754z" fill="#C82226"/></g></svg>