<svg width="76" height="96" viewBox="0 0 76 96" xmlns="http://www.w3.org/2000/svg" xmlns:xlink="http://www.w3.org/1999/xlink"><title>Pin_Mid_WayOf_Close2</title><defs><path d="M34.298 89.743C34.28 90.44 33.706 91 33 91c-.65 0-1.188-.475-1.283-1.094-.938-6.7-5.152-12.778-11.696-15.837v-.004c-.024-.01-.05-.02-.073-.032-.183-.085-.368-.167-.555-.247l-.104-.044C7.908 68.56 0 57.126 0 43.853 0 25.707 14.775 11 33 11s33 14.708 33 32.852c0 13.557-8.248 25.195-20.02 30.214v.018c-6.487 3.033-10.69 9.03-11.682 15.66z" id="b"/><filter x="-8.3%" y="-4.4%" width="116.7%" height="113.7%" filterUnits="objectBoundingBox" id="a"><feOffset dy="2" in="SourceAlpha" result="shadowOffsetOuter1"/><feGaussianBlur stdDeviation="1.5" in="shadowOffsetOuter1" result="shadowBlurOuter1"/><feComposite in="shadowBlurOuter1" in2="SourceAlpha" operator="out" result="shadowBlurOuter1"/><feColorMatrix values="0 0 0 0 0 0 0 0 0 0 0 0 0 0 0 0 0 0 0.0909193841 0" in="shadowBlurOuter1"/></filter></defs><g transform="translate(1 1)" fill="none" fill-rule="evenodd"><ellipse fill="#000" opacity=".147" cx="33" cy="91" rx="9" ry="4"/><use fill="#000" filter="url(#a)" xlink:href="#b"/><path stroke-opacity=".08" stroke="#000" stroke-width="3" d="M32.8 89.677l.014-.156c.052-.35.113-.698.182-1.043.05.26.097.52.14.78l.046.306.014.096c-.023-.096-.104-.16-.196-.16-.1 0-.184.075-.2.177zm.207-1.257c1.31-6.512 5.482-12.145 11.472-15.267v-.078l.91-.39c11.498-4.9 19.11-16.17 19.11-28.833C64.5 26.538 50.398 12.5 33 12.5S1.5 26.538 1.5 43.852c0 12.39 7.286 23.46 18.372 28.51l.11.046c.2.086.398.174.556.248l.07.03.035.05.013-.026c6.454 3.017 10.96 8.876 12.326 15.696h.023l.002.014zm-.207 1.257l-.002.028.002-.028z" stroke-linejoin="square" fill="#37F"/><path d="M33.174 30.248c2.346 0 4.284.68 5.814 2.04 1.496 1.36 2.244 3.094 2.244 5.27 0 2.108-.816 4.012-2.38 5.746-.952 1.02-2.652 2.312-5.032 3.91-2.482 1.632-3.978 3.06-4.522 4.284h11.968V55H24.334c0-2.482.782-4.624 2.414-6.46.884-1.02 2.754-2.516 5.576-4.454 1.564-1.088 2.652-2.006 3.332-2.72 1.054-1.19 1.598-2.482 1.598-3.842 0-1.326-.374-2.312-1.054-2.958-.714-.646-1.768-.952-3.162-.952-1.496 0-2.618.51-3.366 1.53-.748.952-1.156 2.414-1.224 4.318H24.47c.034-2.72.816-4.896 2.38-6.562 1.598-1.768 3.706-2.652 6.324-2.652z" fill="#FFF" fill-rule="nonzero"/><circle stroke="#E81200" stroke-width="3.517" fill="#FFF" cx="57" cy="17" r="15.241"/><path d="M57.5 13.66l4.798-4.797 3.84 3.84-4.8 4.797 4.8 4.798-3.84 3.84-4.798-4.8-4.798 4.8-3.84-3.84 4.8-4.798-4.8-4.798 3.84-3.84 4.798 4.8z" fill="#E81200"/></g></svg>