<svg width="48" height="60" viewBox="0 0 48 60" xmlns="http://www.w3.org/2000/svg"><title>Pin_Facility_Repair</title><g transform="translate(1 2)" fill="none" fill-rule="evenodd"><ellipse fill="#000" opacity=".147" cx="23" cy="55.5" rx="6" ry="2.5"/><path d="M23.904 55.12c-.012.488-.412.88-.904.88-.453 0-.828-.332-.894-.766-.654-4.69-3.59-8.944-8.152-11.086v-.002l-.052-.022c-.127-.06-.256-.117-.386-.173l-.073-.03C5.51 40.292 0 32.288 0 22.997 0 10.297 10.297 0 23 0s23 10.296 23 22.997c0 9.49-5.75 17.636-13.954 21.15v.012c-4.52 2.122-7.45 6.32-8.142 10.96z" fill="#37F"/><path d="M23.904 55.12c-.012.488-.412.88-.904.88-.453 0-.828-.332-.894-.766-.654-4.69-3.59-8.944-8.152-11.086v-.002l-.052-.022c-.127-.06-.256-.117-.386-.173l-.073-.03C5.51 40.292 0 32.288 0 22.997 0 10.297 10.297 0 23 0s23 10.296 23 22.997c0 9.49-5.75 17.636-13.954 21.15v.012c-4.52 2.122-7.45 6.32-8.142 10.96zM15 42.5c.07.027.14.056.21.085 3.822 1.608 6.464 4.774 7.492 8.415h.605c1.032-3.636 3.677-6.798 7.495-8.404.396-.166.796-.312 1.198-.438v-.18C39.095 38.61 44 31.38 44 23c0-11.598-9.402-21-21-21S2 11.402 2 23c0 8.765 5.37 16.276 13 19.422v.077z" fill="#2F6DEB"/><path d="M27.41 21.753l-5.657 5.657-.5-.5c-.195-.195-.195-.512 0-.707l1.768-1.768-1.974-1.975 1.414-1.414 1.975 1.975 1.768-1.767c.195-.195.512-.195.707 0l.5.5zm-6.364 6.364L15.364 33.8c-.78.78-2.047.78-2.828 0-.782-.782-.782-2.048 0-2.83l7.803-7.803 1.267 1.268-1.06 1.06c-.587.586-.587 1.536 0 2.122l.5.5zm2.12-7.778l1.98-1.978c-.704-1.795-.33-3.913 1.12-5.363 1.218-1.22 2.91-1.678 4.485-1.375v.002c.103.016.202.063.28.142.188.186.196.486.022.682l-2.666 2.668c-.39.39-.39 1.024 0 1.415L29.8 17.95c.39.39 1.024.39 1.414 0l2.646-2.647c.195-.195.512-.195.707 0 .08.08.126.178.14.28h.003c.303 1.575-.155 3.268-1.374 4.487-1.334 1.334-3.235 1.757-4.928 1.268l-.022-.023-.77-.77c-.585-.585-1.535-.585-2.12 0l-1.06 1.062-1.27-1.268zM13.244 33.09c.39.39 1.023.39 1.414 0 .39-.39.39-1.024 0-1.414-.39-.39-1.024-.39-1.414 0-.39.39-.39 1.024 0 1.414z" fill="#FFF"/><path d="M24.435 23.02l1.768-1.767c.195-.195.512-.195.707 0l.77.77c.162.162.19.41.08.6-.158.366-.088.806.21 1.105.31.308.77.373 1.14.194l.002.003c.172-.082.38-.06.532.065l4.337 4.334c.977.976.977 2.56 0 3.536l-2.12 2.12c-.977.977-2.56.977-3.536 0l-4.3-4.3c-.16-.16-.19-.402-.088-.59l-.003-.002c.165-.368.097-.815-.205-1.117-.3-.3-.743-.37-1.11-.208-.19.106-.435.078-.596-.083-.003-.005-.007-.008-.01-.01l-.76-.76c-.194-.195-.194-.512 0-.707l1.77-1.768-7.78-7.778h-1.13c-.176 0-.34-.092-.43-.243l-1.774-2.958c-.118-.197-.087-.448.075-.61l.862-.863c.163-.162.414-.193.61-.075l2.96 1.775c.15.09.242.253.242.43v1.13l7.778 7.778zm2.475 6.01c-.195.196-.195.513 0 .708l2.828 2.83c.196.194.512.194.707 0 .196-.197.196-.513 0-.708l-2.828-2.83c-.195-.194-.512-.194-.707 0zm2.12-2.12c-.194.195-.194.512 0 .707l2.83 2.828c.195.196.51.196.707 0 .195-.195.195-.51 0-.707l-2.83-2.828c-.194-.195-.51-.195-.706 0z" fill="#FFF"/></g></svg>