<svg width="48" height="60" viewBox="0 0 48 60" xmlns="http://www.w3.org/2000/svg"><title>Pin_Mid_WayOf</title><g transform="translate(1 2)" fill="none" fill-rule="evenodd"><ellipse fill="#000" opacity=".147" cx="23" cy="55.5" rx="6" ry="2.5"/><path d="M23.904 55.12c-.012.488-.412.88-.904.88-.453 0-.828-.332-.894-.766-.654-4.69-3.59-8.944-8.152-11.086v-.002l-.052-.022c-.127-.06-.256-.117-.386-.173l-.073-.03C5.51 40.292 0 32.288 0 22.997 0 10.297 10.297 0 23 0s23 10.296 23 22.997c0 9.49-5.75 17.636-13.954 21.15v.012c-4.52 2.122-7.45 6.32-8.142 10.96z" fill="#37F"/><path d="M23.904 55.12c-.012.488-.412.88-.904.88-.453 0-.828-.332-.894-.766-.654-4.69-3.59-8.944-8.152-11.086v-.002l-.052-.022c-.127-.06-.256-.117-.386-.173l-.073-.03C5.51 40.292 0 32.288 0 22.997 0 10.297 10.297 0 23 0s23 10.296 23 22.997c0 9.49-5.75 17.636-13.954 21.15v.012c-4.52 2.122-7.45 6.32-8.142 10.96zM15 42.5c.07.027.14.056.21.085 3.822 1.608 6.464 4.774 7.492 8.415h.605c1.032-3.636 3.677-6.798 7.495-8.404.396-.166.796-.312 1.198-.438v-.18C39.095 38.61 44 31.38 44 23c0-11.598-9.402-21-21-21S2 11.402 2 23c0 8.765 5.37 16.276 13 19.422v.077z" fill="#2F6DEB"/><path d="M25.784 25.864H21.32v-2.208h11.256v2.208h-4.488v4.584h5.592v2.232H20.24v-2.232h5.544v-4.584zm1.992-6.672c-1.728 1.44-3.864 2.64-6.408 3.624l-1.44-1.872c4.296-1.56 7.296-3.744 8.976-6.552H21.08v-2.184h10.56v1.8c-.576 1.344-1.368 2.592-2.376 3.72 1.872 1.176 3.456 2.352 4.8 3.528l-1.68 1.68c-1.128-1.2-2.664-2.448-4.608-3.744zm-7.68 8.616v2.112c-2.304 1.2-4.872 2.16-7.752 2.88l-.312-2.208c3.072-.696 5.76-1.632 8.064-2.784zM15.944 11.2l2.184.864c-1.152 2.88-2.304 5.232-3.456 7.008.888-.096 1.776-.216 2.664-.336.432-.816.864-1.68 1.32-2.568l2.088.768c-1.992 3.72-3.672 6.432-5.064 8.16 1.464-.336 2.952-.816 4.464-1.392v2.064c-2.544.936-4.944 1.56-7.248 1.896l-.6-2.064c.408-.168.744-.384 1.032-.648.768-.792 1.704-2.184 2.856-4.152l-3.624.504-.552-2.088c.336-.144.648-.432.936-.84 1.152-2.16 2.136-4.536 3-7.176z" fill="#FFF" fill-rule="nonzero"/></g></svg>