<svg width="48" height="60" viewBox="0 0 48 60" xmlns="http://www.w3.org/2000/svg"><title>Pin_Facility_Toilet</title><g transform="translate(1 2)" fill="none" fill-rule="evenodd"><ellipse fill="#000" opacity=".147" cx="23" cy="55.5" rx="6" ry="2.5"/><path d="M23.904 55.12c-.012.488-.412.88-.904.88-.453 0-.828-.332-.894-.766-.654-4.69-3.59-8.944-8.152-11.086v-.002l-.052-.022c-.127-.06-.256-.117-.386-.173l-.073-.03C5.51 40.292 0 32.288 0 22.997 0 10.297 10.297 0 23 0s23 10.296 23 22.997c0 9.49-5.75 17.636-13.954 21.15v.012c-4.52 2.122-7.45 6.32-8.142 10.96z" fill="#37F"/><path d="M23.904 55.12c-.012.488-.412.88-.904.88-.453 0-.828-.332-.894-.766-.654-4.69-3.59-8.944-8.152-11.086v-.002l-.052-.022c-.127-.06-.256-.117-.386-.173l-.073-.03C5.51 40.292 0 32.288 0 22.997 0 10.297 10.297 0 23 0s23 10.296 23 22.997c0 9.49-5.75 17.636-13.954 21.15v.012c-4.52 2.122-7.45 6.32-8.142 10.96zM15 42.5c.07.027.14.056.21.085 3.822 1.608 6.464 4.774 7.492 8.415h.605c1.032-3.636 3.677-6.798 7.495-8.404.396-.166.796-.312 1.198-.438v-.18C39.095 38.61 44 31.38 44 23c0-11.598-9.402-21-21-21S2 11.402 2 23c0 8.765 5.37 16.276 13 19.422v.077z" fill="#2F6DEB"/><path d="M17.758 28l-.82 6.562c-.032.25-.244.438-.497.438h-1.116c-.252 0-.465-.188-.496-.438L14.008 28h-.23c-.51 0-.938-.383-.994-.89l-.778-7c-.06-.548.335-1.043.884-1.104.036-.004.073-.006.11-.006h5.766c.552 0 1 .448 1 1 0 .037-.002.074-.007.11l-.224 2.01-.554 4.99c-.057.507-.485.89-.994.89h-.23zm-1.875-10c-1.657 0-3-1.343-3-3s1.343-3 3-3 3 1.343 3 3-1.343 3-3 3zm15.75 11l-.64 5.124c-.063.5-.49.876-.993.876h-.234c-.505 0-.93-.376-.993-.876L28.133 29h-2.578c-.276 0-.5-.224-.5-.5 0-.05.007-.097.02-.144l2.594-8.643c.126-.423.515-.713.957-.713h2.512c.44 0 .83.29.957.713l2.593 8.643c.08.265-.07.544-.336.623-.046.013-.095.02-.143.02h-2.577zm-1.75-11c-1.657 0-3-1.343-3-3s1.343-3 3-3 3 1.343 3 3-1.343 3-3 3zm-7.5-5h1c.276 0 .5.224.5.5v20c0 .276-.224.5-.5.5h-1c-.276 0-.5-.224-.5-.5v-20c0-.276.224-.5.5-.5z" fill="#FFF"/></g></svg>