<svg width="48" height="60" viewBox="0 0 48 60" xmlns="http://www.w3.org/2000/svg"><title>Pin_Facility_Supply</title><g transform="translate(1 2)" fill="none" fill-rule="evenodd"><ellipse fill="#000" opacity=".147" cx="23" cy="55.5" rx="6" ry="2.5"/><path d="M23.904 55.12c-.012.488-.412.88-.904.88-.453 0-.828-.332-.894-.766-.654-4.69-3.59-8.944-8.152-11.086v-.002l-.052-.022c-.127-.06-.256-.117-.386-.173l-.073-.03C5.51 40.292 0 32.288 0 22.997 0 10.297 10.297 0 23 0s23 10.296 23 22.997c0 9.49-5.75 17.636-13.954 21.15v.012c-4.52 2.122-7.45 6.32-8.142 10.96z" fill="#37F"/><path d="M23.904 55.12c-.012.488-.412.88-.904.88-.453 0-.828-.332-.894-.766-.654-4.69-3.59-8.944-8.152-11.086v-.002l-.052-.022c-.127-.06-.256-.117-.386-.173l-.073-.03C5.51 40.292 0 32.288 0 22.997 0 10.297 10.297 0 23 0s23 10.296 23 22.997c0 9.49-5.75 17.636-13.954 21.15v.012c-4.52 2.122-7.45 6.32-8.142 10.96zM15 42.5c.07.027.14.056.21.085 3.822 1.608 6.464 4.774 7.492 8.415h.605c1.032-3.636 3.677-6.798 7.495-8.404.396-.166.796-.312 1.198-.438v-.18C39.095 38.61 44 31.38 44 23c0-11.598-9.402-21-21-21S2 11.402 2 23c0 8.765 5.37 16.276 13 19.422v.077z" fill="#2F6DEB"/><path d="M32.033 29.912h-1.226c-.44 1.415-2.245 2.435-3.85 2.435h-10.28c-2.03 0-3.677-1.635-3.677-3.652v-9.987h17.87v1.03h1.226c2.708 0 4.904 2.18 4.904 4.87 0 2.688-2.26 5.304-4.967 5.304zm.063-7.74H30.87v5.306h1.163c1.354 0 2.515-1.527 2.515-2.87 0-1.346-1.098-2.436-2.452-2.436zm-7.403-4.82h-2.14c.717-.526 1.164-1.446 1.145-2.33-.245-1-1.08-1.51-1.08-2.478-.038-.963.353-1.894 1.07-2.544h2.075s-1.07.425-1.07 2.497c0 .945.826 1.42 1.056 2.412.044.91-.365 1.84-1.057 2.442zm-4.147 0h-2.61c.716-.526 1.632-1.446 1.613-2.33-.24-1-1.08-1.51-1.08-2.478-.04-.963.353-1.895 1.07-2.544h2.075s-1.07.425-1.07 2.497c0 .945.827 1.42 1.057 2.412.045.91-.365 1.84-1.056 2.442zm-5.128 16.29H28.04c.68 0 1.41.686 1.41 1.358H14.375c.213-.562.477-1.146 1.043-1.358z" fill="#FFF"/></g></svg>