<svg width="48" height="64" viewBox="0 0 48 64" xmlns="http://www.w3.org/2000/svg"><title>途经点3</title><g transform="translate(1 6)" fill="none" fill-rule="evenodd"><ellipse fill="#000" opacity=".147" cx="23" cy="55.5" rx="6" ry="2.5"/><path d="M23.904 55.12c-.012.488-.412.88-.904.88-.453 0-.828-.332-.894-.766-.654-4.69-3.59-8.944-8.152-11.086v-.002l-.052-.022c-.127-.06-.256-.117-.386-.173l-.073-.03C5.51 40.292 0 32.288 0 22.997 0 10.297 10.297 0 23 0s23 10.296 23 22.997c0 9.49-5.75 17.636-13.954 21.15v.012c-4.52 2.122-7.45 6.32-8.142 10.96z" fill="#37F"/><path d="M22.382 13.072c1.872 0 3.406.442 4.55 1.352 1.118.91 1.69 2.158 1.69 3.77 0 2.028-1.04 3.38-3.094 4.056 1.092.338 1.95.832 2.522 1.508.624.702.936 1.612.936 2.704 0 1.716-.598 3.12-1.794 4.212-1.248 1.118-2.886 1.69-4.914 1.69-1.924 0-3.484-.494-4.654-1.482-1.3-1.092-2.028-2.704-2.184-4.784h3.094c.052 1.196.416 2.132 1.144 2.782.65.598 1.508.91 2.574.91 1.17 0 2.106-.338 2.782-.988.598-.598.91-1.326.91-2.21 0-1.066-.338-1.846-.962-2.34-.624-.52-1.534-.754-2.73-.754h-1.3V21.21h1.3c1.092 0 1.924-.234 2.496-.702.546-.468.832-1.17.832-2.08 0-.91-.26-1.586-.754-2.054-.546-.468-1.352-.702-2.418-.702-1.092 0-1.924.26-2.522.806-.624.546-.988 1.378-1.092 2.496h-2.99c.156-1.872.832-3.328 2.08-4.368 1.17-1.04 2.678-1.534 4.498-1.534z" fill="#FFF" fill-rule="nonzero"/><path d="M23.904 55.12c-.012.488-.412.88-.904.88-.453 0-.828-.332-.894-.766-.654-4.69-3.59-8.944-8.152-11.086v-.002l-.052-.022c-.127-.06-.256-.117-.386-.173l-.073-.03C5.51 40.292 0 32.288 0 22.997 0 10.297 10.297 0 23 0s23 10.296 23 22.997c0 9.49-5.75 17.636-13.954 21.15v.012c-4.52 2.122-7.45 6.32-8.142 10.96zM15 42.5c.07.027.14.056.21.085 3.822 1.608 6.464 4.774 7.492 8.415h.605c1.032-3.636 3.677-6.798 7.495-8.404.396-.166.796-.312 1.198-.438v-.18C39.095 38.61 44 31.38 44 23c0-11.598-9.402-21-21-21S2 11.402 2 23c0 8.765 5.37 16.276 13 19.422v.077z" fill="#2F6DEB"/></g></svg>