<svg width="48" height="60" viewBox="0 0 48 60" xmlns="http://www.w3.org/2000/svg"><title>Pin_Facility_ATM</title><g transform="translate(1 2)" fill="none" fill-rule="evenodd"><ellipse fill="#000" opacity=".147" cx="23" cy="55.5" rx="6" ry="2.5"/><path d="M23.904 55.12c-.012.488-.412.88-.904.88-.453 0-.828-.332-.894-.766-.654-4.69-3.59-8.944-8.152-11.086v-.002l-.052-.022c-.127-.06-.256-.117-.386-.173l-.073-.03C5.51 40.292 0 32.288 0 22.997 0 10.297 10.297 0 23 0s23 10.296 23 22.997c0 9.49-5.75 17.636-13.954 21.15v.012c-4.52 2.122-7.45 6.32-8.142 10.96z" fill="#37F"/><path d="M23.022 16.993V31.66c0 .178-.14.323-.314.323h-2.373c-.174 0-.314-.145-.314-.324V16.992h-2.683c-.174 0-.314-.144-.314-.324v-2.346c0-.18.14-.324.314-.324h8.352c.173 0 .313.145.313.324v2.345c0 .18-.14.323-.314.323H23.02zM30.302 14c.316 0 .59.223.665.54l1.525 7.478 1.368-7.466c.07-.323.348-.552.67-.552h3.15c.177 0 .32.148.32.33v17.32c0 .182-.143.33-.32.33h-2.43c-.156-.023-.276-.16-.276-.327v-12.52l-1.65 8.758c-.032.152-.16.26-.31.26h-1.05c-.147 0-.274-.104-.31-.25l-1.648-7.657v11.41c0 .168-.123.307-.282.326h-2.42c-.177 0-.32-.148-.32-.33V14.33c0-.182.143-.33.32-.33h2.998zM14.03 24.988l-1.518-5.74-1.52 5.74h3.038zm.537 3.004h-4.12L9.9 31.725c-.026.16-.16.275-.315.275H7.32c-.177 0-.32-.148-.32-.33 0-.02.002-.04.005-.06l3.31-17.34c.027-.156.16-.27.314-.27h3.766c.155 0 .287.114.315.27l3.31 17.34c.032.18-.084.352-.258.384-.018.004-.037.006-.057.006h-2.262c-.156 0-.29-.116-.315-.275l-.56-3.733z" fill="#FFF"/><path d="M23.904 55.12c-.012.488-.412.88-.904.88-.453 0-.828-.332-.894-.766-.654-4.69-3.59-8.944-8.152-11.086v-.002l-.052-.022c-.127-.06-.256-.117-.386-.173l-.073-.03C5.51 40.292 0 32.288 0 22.997 0 10.297 10.297 0 23 0s23 10.296 23 22.997c0 9.49-5.75 17.636-13.954 21.15v.012c-4.52 2.122-7.45 6.32-8.142 10.96zM15 42.5c.07.027.14.056.21.085 3.822 1.608 6.464 4.774 7.492 8.415h.605c1.032-3.636 3.677-6.798 7.495-8.404.396-.166.796-.312 1.198-.438v-.18C39.095 38.61 44 31.38 44 23c0-11.598-9.402-21-21-21S2 11.402 2 23c0 8.765 5.37 16.276 13 19.422v.077z" fill="#2F6DEB"/></g></svg>