<svg width="76" height="96" viewBox="0 0 76 96" xmlns="http://www.w3.org/2000/svg" xmlns:xlink="http://www.w3.org/1999/xlink"><title>Pin_Mid_WayOf_Close</title><defs><path d="M34.298 89.743C34.28 90.44 33.706 91 33 91c-.65 0-1.188-.475-1.283-1.094-.938-6.7-5.152-12.778-11.696-15.837v-.004c-.024-.01-.05-.02-.073-.032-.183-.085-.368-.167-.555-.247l-.104-.044C7.908 68.56 0 57.126 0 43.853 0 25.707 14.775 11 33 11s33 14.708 33 32.852c0 13.557-8.248 25.195-20.02 30.214v.018c-6.487 3.033-10.69 9.03-11.682 15.66z" id="b"/><filter x="-8.3%" y="-4.4%" width="116.7%" height="113.7%" filterUnits="objectBoundingBox" id="a"><feOffset dy="2" in="SourceAlpha" result="shadowOffsetOuter1"/><feGaussianBlur stdDeviation="1.5" in="shadowOffsetOuter1" result="shadowBlurOuter1"/><feComposite in="shadowBlurOuter1" in2="SourceAlpha" operator="out" result="shadowBlurOuter1"/><feColorMatrix values="0 0 0 0 0 0 0 0 0 0 0 0 0 0 0 0 0 0 0.0909193841 0" in="shadowBlurOuter1"/></filter></defs><g fill="none" fill-rule="evenodd"><g transform="translate(1 1)"><ellipse fill="#000" opacity=".147" cx="33" cy="91" rx="9" ry="4"/><use fill="#000" filter="url(#a)" xlink:href="#b"/><path stroke-opacity=".08" stroke="#000" stroke-width="3" d="M32.8 89.677l.014-.156c.052-.35.113-.698.182-1.043.05.26.097.52.14.78l.046.306.014.096c-.023-.096-.104-.16-.196-.16-.1 0-.184.075-.2.177zm.207-1.257c1.31-6.512 5.482-12.145 11.472-15.267v-.078l.91-.39c11.498-4.9 19.11-16.17 19.11-28.833C64.5 26.538 50.398 12.5 33 12.5S1.5 26.538 1.5 43.852c0 12.39 7.286 23.46 18.372 28.51l.11.046c.2.086.398.174.556.248l.07.03.035.05.013-.026c6.454 3.017 10.96 8.876 12.326 15.696h.023l.002.014zm-.207 1.257l-.002.028.002-.028z" stroke-linejoin="square" fill="#37F"/><path d="M36.774 49.894H30.62V46.46H46.6v3.434h-6.222v6.086h7.752v3.468H29.09V55.98h7.684v-6.086zm3.026-9.452c-2.38 1.972-5.372 3.672-8.942 5.032L28.58 42.55c5.984-2.142 10.132-5.1 12.512-8.908H30.246v-3.4h15.13v2.788c-.782 1.87-1.87 3.604-3.23 5.168 2.55 1.632 4.76 3.23 6.596 4.828l-2.618 2.618c-1.564-1.666-3.672-3.4-6.324-5.202zM28.92 52.308v3.298c-3.264 1.7-6.936 3.094-11.05 4.114l-.476-3.434c4.386-.986 8.228-2.312 11.526-3.978zm-6.086-23.426l3.4 1.326c-1.564 3.978-3.162 7.242-4.794 9.758 1.156-.136 2.278-.272 3.366-.442.578-1.122 1.19-2.312 1.836-3.604l3.264 1.224c-2.72 5.1-5.032 8.84-6.936 11.254 1.972-.51 3.978-1.156 6.018-1.938v3.196c-3.638 1.36-7.072 2.278-10.336 2.754l-.918-3.196c.612-.272 1.156-.612 1.598-1.02.986-1.02 2.244-2.856 3.74-5.474-1.564.204-3.196.442-4.896.68l-.85-3.23c.544-.238 1.02-.68 1.462-1.292 1.564-3.06 2.89-6.392 4.046-9.996z" fill="#FFF" fill-rule="nonzero"/><circle stroke="#E81200" stroke-width="3.517" fill="#FFF" cx="57" cy="17" r="15.241"/><path d="M57.5 13.66l4.798-4.797 3.84 3.84-4.8 4.797 4.8 4.798-3.84 3.84-4.798-4.8-4.798 4.8-3.84-3.84 4.8-4.798-4.8-4.798 3.84-3.84 4.798 4.8z" fill="#E81200"/></g></g></svg>