<svg width="76" height="96" viewBox="0 0 76 96" xmlns="http://www.w3.org/2000/svg" xmlns:xlink="http://www.w3.org/1999/xlink"><title>Pin_Mid_WayOf_Close1</title><defs><path d="M34.298 89.743C34.28 90.44 33.706 91 33 91c-.65 0-1.188-.475-1.283-1.094-.938-6.7-5.152-12.778-11.696-15.837v-.004c-.024-.01-.05-.02-.073-.032-.183-.085-.368-.167-.555-.247l-.104-.044C7.908 68.56 0 57.126 0 43.853 0 25.707 14.775 11 33 11s33 14.708 33 32.852c0 13.557-8.248 25.195-20.02 30.214v.018c-6.487 3.033-10.69 9.03-11.682 15.66z" id="b"/><filter x="-8.3%" y="-4.4%" width="116.7%" height="113.7%" filterUnits="objectBoundingBox" id="a"><feOffset dy="2" in="SourceAlpha" result="shadowOffsetOuter1"/><feGaussianBlur stdDeviation="1.5" in="shadowOffsetOuter1" result="shadowBlurOuter1"/><feComposite in="shadowBlurOuter1" in2="SourceAlpha" operator="out" result="shadowBlurOuter1"/><feColorMatrix values="0 0 0 0 0 0 0 0 0 0 0 0 0 0 0 0 0 0 0.0909193841 0" in="shadowBlurOuter1"/></filter></defs><g fill="none" fill-rule="evenodd"><g transform="translate(1 1)"><ellipse fill="#000" opacity=".147" cx="33" cy="91" rx="9" ry="4"/><use fill="#000" filter="url(#a)" xlink:href="#b"/><path stroke-opacity=".08" stroke="#000" stroke-width="3" d="M32.8 89.677l.014-.156c.052-.35.113-.698.182-1.043.05.26.097.52.14.78l.046.306.014.096c-.023-.096-.104-.16-.196-.16-.1 0-.184.075-.2.177zm.207-1.257c1.31-6.512 5.482-12.145 11.472-15.267v-.078l.91-.39c11.498-4.9 19.11-16.17 19.11-28.833C64.5 26.538 50.398 12.5 33 12.5S1.5 26.538 1.5 43.852c0 12.39 7.286 23.46 18.372 28.51l.11.046c.2.086.398.174.556.248l.07.03.035.05.013-.026c6.454 3.017 10.96 8.876 12.326 15.696h.023l.002.014zm-.207 1.257l-.002.028.002-.028z" stroke-linejoin="square" fill="#37F"/><path d="M33.528 32.724h2.992V57h-3.978V37.518C31.08 38.844 29.244 39.83 27 40.476v-3.944c1.088-.272 2.244-.748 3.468-1.428 1.224-.748 2.244-1.53 3.06-2.38z" fill="#FFF" fill-rule="nonzero"/><circle stroke="#E81200" stroke-width="3.517" fill="#FFF" cx="57" cy="17" r="15.241"/><path d="M57.5 13.66l4.798-4.797 3.84 3.84-4.8 4.797 4.8 4.798-3.84 3.84-4.798-4.8-4.798 4.8-3.84-3.84 4.8-4.798-4.8-4.798 3.84-3.84 4.798 4.8z" fill="#E81200"/></g></g></svg>