<svg width="46" height="58" viewBox="0 0 46 58" xmlns="http://www.w3.org/2000/svg"><title>终点</title><g transform="translate(-1)" fill="none" fill-rule="evenodd"><ellipse fill="#000" opacity=".147" cx="24" cy="55.5" rx="6" ry="2.5"/><path d="M24.904 55.12c-.012.488-.412.88-.904.88-.453 0-.828-.332-.894-.766-.654-4.69-3.59-8.944-8.152-11.086v-.002l-.052-.022c-.127-.06-.256-.117-.386-.173l-.073-.03C6.51 40.292 1 32.288 1 22.997 1 10.297 11.297 0 24 0s23 10.296 23 22.997c0 9.49-5.75 17.636-13.954 21.15v.012c-4.52 2.122-7.45 6.32-8.142 10.96z" fill="#EB3B4C"/><path d="M24.904 55.12c-.012.488-.412.88-.904.88-.453 0-.828-.332-.894-.766-.654-4.69-3.59-8.944-8.152-11.086v-.002l-.052-.022c-.127-.06-.256-.117-.386-.173l-.073-.03C6.51 40.292 1 32.288 1 22.997 1 10.297 11.297 0 24 0s23 10.296 23 22.997c0 9.49-5.75 17.636-13.954 21.15v.012c-4.52 2.122-7.45 6.32-8.142 10.96zM16 42.5c.07.027.14.056.21.085 3.822 1.608 6.464 4.774 7.492 8.415h.605c1.032-3.636 3.677-6.798 7.495-8.404.396-.166.796-.312 1.198-.438v-.18C40.095 38.61 45 31.38 45 23c0-11.598-9.402-21-21-21S3 11.402 3 23c0 8.765 5.37 16.276 13 19.422v.077z" fill="#D83646"/><path d="M21 30.144v2.544c-2.232.84-4.776 1.536-7.608 2.064l-.36-2.64c3.024-.48 5.688-1.152 7.968-1.968zm-4.488-17.016l2.352.912c-1.056 2.736-2.16 4.992-3.264 6.768l2.112-.288c.432-.912.864-1.92 1.344-2.976l2.184.792c-1.824 3.84-3.36 6.648-4.608 8.448 1.104-.288 2.232-.672 3.336-1.128v2.232c-2.208.864-4.272 1.416-6.216 1.704l-.648-2.256c.432-.192.816-.408 1.128-.696.624-.744 1.416-2.04 2.376-3.888-1.056.144-2.136.312-3.288.48l-.624-2.28c.384-.144.744-.456 1.032-.912 1.056-2.088 1.992-4.392 2.784-6.912zm9.408 12.96c2.448.672 4.704 1.488 6.768 2.448l-1.224 1.92c-2.208-1.032-4.512-1.848-6.864-2.424l1.32-1.944zm-2.904 3.744c3.84 1.008 7.368 2.208 10.536 3.648l-1.344 2.088c-3.432-1.536-6.96-2.76-10.608-3.648l1.416-2.088zm1.92-16.656l2.544.312c-.192.648-.384 1.272-.6 1.848h6.456v2.016c-.936 1.824-2.064 3.432-3.36 4.824 1.632 1.056 3.408 1.968 5.352 2.736l-1.296 2.256c-2.136-.936-4.08-2.04-5.808-3.336-1.92 1.584-4.176 2.808-6.72 3.672l-1.224-2.208c2.256-.672 4.272-1.68 6.024-3.024-.792-.72-1.536-1.44-2.208-2.208-.528.6-1.08 1.176-1.68 1.728l-1.584-2.04c2.016-1.8 3.384-3.984 4.104-6.576zm3.096 7.584c.912-.936 1.704-1.944 2.424-3.024h-4.728c-.12.192-.24.384-.336.576.816.864 1.68 1.68 2.64 2.448z" fill="#FFF" fill-rule="nonzero"/></g></svg>