<svg xmlns="http://www.w3.org/2000/svg" viewBox="0 0 64 64" fill="none">
  <path d="M14 24c0-2.21 1.79-4 4-4h28c2.21 0 4 1.79 4 4v4c-2.21 0-4 1.79-4 4s1.79 4 4 4v4c0 2.21-1.79 4-4 4H18c-2.21 0-4-1.79-4-4v-4c2.21 0 4-1.79 4-4s-1.79-4-4-4v-4Z" fill="#DCE3EC" stroke="#234A74" stroke-width="3.5" stroke-linejoin="round"/>
  <path d="M28 26.5 30.68 31.93 36.67 32.8 32.34 37.03 33.36 43 28 40.18 22.64 43 23.66 37.03 19.33 32.8 25.32 31.93 28 26.5Z" fill="#234A74"/>
  <path d="M42.5 18.5 44.11 21.75 47.7 22.27 45.1 24.81 45.71 28.39 42.5 26.7 39.29 28.39 39.9 24.81 37.3 22.27 40.89 21.75 42.5 18.5Z" fill="#234A74" opacity=".9"/>
</svg>