<svg xmlns="http://www.w3.org/2000/svg" viewBox="0 0 64 64" fill="none">
  <path d="M19 24h26c2.76 0 5 2.24 5 5v15c0 4.42-3.58 8-8 8H22c-4.42 0-8-3.58-8-8V29c0-2.76 2.24-5 5-5Z" fill="#DCE3EC" stroke="#234A74" stroke-width="3.5" stroke-linejoin="round"/>
  <path d="M24 24v-2c0-4.42 3.58-8 8-8s8 3.58 8 8v2" stroke="#234A74" stroke-width="3.5" stroke-linecap="round"/>
  <circle cx="32" cy="39" r="7" fill="#fff" stroke="#234A74" stroke-width="3"/>
  <path d="M32 34.2 33.66 37.57 37.38 38.11 34.69 40.73 35.33 44.43 32 42.68 28.67 44.43 29.31 40.73 26.62 38.11 30.34 37.57 32 34.2Z" fill="#234A74"/>
</svg>